<svg width="50" height="50" fill="none" xmlns="http://www.w3.org/2000/svg"><g clip-path="url(#slack-new-logo 1__a)" fill-rule="evenodd" clip-rule="evenodd" fill="#fff"><path d="M12.099.087c-1.824.002-3.3 1.516-3.3 3.382s1.477 3.38 3.301 3.382h3.3v-3.38C15.403 1.605 13.926.09 12.1.087c.001 0 .001 0 0 0Zm0 9.02H3.3C1.476 9.11-.002 10.623 0 12.49c-.003 1.866 1.475 3.38 3.299 3.383h8.8c1.824-.001 3.302-1.515 3.3-3.381.002-1.868-1.476-3.382-3.3-3.384ZM33 12.49c.002-1.867-1.476-3.381-3.3-3.383-1.824.002-3.302 1.516-3.3 3.382v3.383h3.3c1.824-.001 3.302-1.515 3.3-3.383Zm-8.8 0V3.47c.002-1.865-1.475-3.38-3.299-3.383-1.824.002-3.302 1.516-3.3 3.382v9.02c-.003 1.866 1.475 3.38 3.299 3.383 1.824-.001 3.302-1.515 3.3-3.383Zm-3.3 21.422c1.824-.001 3.301-1.515 3.3-3.381.001-1.866-1.476-3.38-3.3-3.382h-3.301v3.381c-.002 1.865 1.476 3.38 3.3 3.382Zm0-9.021h8.8c1.824-.001 3.301-1.516 3.3-3.382.003-1.866-1.475-3.38-3.3-3.383h-8.8c-1.823.001-3.301 1.516-3.3 3.382-.001 1.867 1.475 3.382 3.3 3.383ZM0 21.509c-.001 1.866 1.476 3.38 3.3 3.382 1.825-.001 3.302-1.516 3.301-3.382v-3.382h-3.3C1.476 18.13-.001 19.643 0 21.51Zm8.8 0v9.02c-.003 1.866 1.475 3.38 3.3 3.383 1.824-.001 3.301-1.515 3.3-3.382v-9.018c.002-1.866-1.475-3.38-3.3-3.383-1.825 0-3.301 1.514-3.3 3.38 0 0 0 .001 0 0Z"/></g><defs><clipPath id="slack-new-logo 1__a"><path fill="#fff" transform="translate(0 .087)" d="M0 0h33v33.825H0z"/></clipPath></defs></svg>