<svg width="104" height="22" viewBox="0 0 104 22" fill="none" xmlns="http://www.w3.org/2000/svg">
<g clip-path="url(#clip0_1072_7781)">
<path d="M43.277 4.45842V17.1252H40.976V7.1853H40.9453L36.8341 17.1252H35.3001L31.0969 7.1853H31.0662V17.1252H28.9492V4.45842H32.2627L36.0671 13.8412H36.1285L40.1476 4.45842H43.277ZM45.1792 5.42602C45.1792 5.07417 45.3019 4.78096 45.5781 4.54639C45.8542 4.31182 46.161 4.19453 46.5291 4.19453C46.928 4.19453 47.2655 4.31182 47.5109 4.54639C47.7564 4.78096 47.9098 5.07417 47.9098 5.42602C47.9098 5.77788 47.787 6.07109 47.5109 6.30566C47.2348 6.54023 46.928 6.65752 46.5291 6.65752C46.1303 6.65752 45.8235 6.54023 45.5781 6.30566C45.3326 6.04177 45.1792 5.74856 45.1792 5.42602ZM47.6643 8.03562V17.1252H45.4246V8.03562H47.6643ZM54.4447 15.5712C54.7822 15.5712 55.1504 15.5125 55.5492 15.3366C55.9481 15.19 56.3162 14.9848 56.6537 14.7502V16.744C56.2855 16.9493 55.8867 17.0959 55.4265 17.1839C54.9663 17.2718 54.4754 17.3305 53.9232 17.3305C52.5118 17.3305 51.3767 16.92 50.5176 16.0696C49.6279 15.2193 49.1984 14.1344 49.1984 12.8443C49.1984 11.3782 49.6586 10.1761 50.5483 9.23779C51.438 8.29951 52.6959 7.83037 54.3527 7.83037C54.7822 7.83037 55.2117 7.88901 55.6106 7.97697C56.0401 8.06494 56.3776 8.21154 56.623 8.32883V10.3813C56.2855 10.1467 55.9174 9.9415 55.5799 9.82421C55.2117 9.70693 54.8436 9.61897 54.4754 9.61897C53.5857 9.61897 52.88 9.88286 52.3278 10.44C51.7755 10.9971 51.5301 11.7301 51.5301 12.6684C51.5301 13.5773 51.8062 14.3104 52.3278 14.8088C52.8493 15.3073 53.555 15.5712 54.4447 15.5712ZM63.0046 7.88901C63.1887 7.88901 63.3421 7.88901 63.4955 7.91833C63.6489 7.94765 63.7716 7.97697 63.8636 8.0063V10.1761C63.7409 10.0881 63.5875 10.0001 63.3421 9.9415C63.0966 9.88286 62.8512 9.82421 62.5137 9.82421C61.9614 9.82421 61.5012 10.0588 61.1331 10.4986C60.7649 10.9384 60.5501 11.6128 60.5501 12.5511V17.1252H58.3105V8.03562H60.5501V9.47236H60.5808C60.7956 8.9739 61.1024 8.59272 61.5012 8.29951C61.9308 8.03562 62.4216 7.88901 63.0046 7.88901ZM63.9864 12.727C63.9864 11.2316 64.4466 10.0295 65.3056 9.14983C66.1954 8.27019 67.4226 7.83037 68.9873 7.83037C70.4599 7.83037 71.6258 8.24087 72.4542 9.09118C73.2825 9.9415 73.7121 11.085 73.7121 12.5218C73.7121 13.9878 73.2519 15.1607 72.3928 16.0403C71.5031 16.92 70.3065 17.3598 68.7725 17.3598C67.2999 17.3598 66.134 16.9493 65.2749 16.1283C64.4159 15.278 63.9864 14.1344 63.9864 12.727ZM66.3181 12.6391C66.3181 13.5773 66.5328 14.3104 66.993 14.8088C67.4533 15.3073 68.0975 15.5712 68.9259 15.5712C69.7236 15.5712 70.3679 15.3366 70.7974 14.8088C71.227 14.3104 71.4417 13.5773 71.4417 12.5804C71.4417 11.6128 71.227 10.8798 70.7974 10.352C70.3679 9.85354 69.7236 9.58964 68.9566 9.58964C68.1282 9.58964 67.5146 9.85353 67.0544 10.3813C66.5328 10.9384 66.3181 11.6715 66.3181 12.6391ZM77.0563 10.44C77.0563 10.7332 77.1483 10.9971 77.3631 11.173C77.5778 11.3489 78.0073 11.5542 78.713 11.8181C79.6027 12.1699 80.247 12.5511 80.5845 12.9616C80.9527 13.4014 81.1368 13.8999 81.1368 14.5156C81.1368 15.3659 80.7993 16.0403 80.0936 16.5681C79.4186 17.0959 78.4676 17.3305 77.3017 17.3305C76.9028 17.3305 76.4733 17.2718 75.9824 17.1839C75.4915 17.0959 75.0927 16.9786 74.7552 16.832V14.7209C75.1541 14.9848 75.6143 15.2193 76.0745 15.3659C76.5347 15.5125 76.9642 15.6005 77.3631 15.6005C77.8539 15.6005 78.2528 15.5419 78.4676 15.3953C78.713 15.2486 78.8357 15.0434 78.8357 14.7209C78.8357 14.4277 78.713 14.1931 78.4676 13.9585C78.2221 13.7533 77.7312 13.5187 77.0563 13.2548C76.2279 12.9323 75.6449 12.5511 75.3075 12.1406C74.97 11.7301 74.7859 11.2023 74.7859 10.5572C74.7859 9.73625 75.1234 9.06186 75.7983 8.53408C76.4733 8.0063 77.3631 7.7424 78.4369 7.7424C78.7744 7.7424 79.1425 7.77173 79.5414 7.85969C79.9402 7.94765 80.3084 8.03562 80.5845 8.12358V10.2054C80.2777 10.0295 79.9402 9.85354 79.5414 9.70693C79.1425 9.56032 78.7437 9.50168 78.3755 9.50168C77.946 9.50168 77.6085 9.58964 77.3937 9.73625C77.179 9.9415 77.0563 10.1467 77.0563 10.44ZM82.0879 12.727C82.0879 11.2316 82.5481 10.0295 83.4071 9.14983C84.2969 8.27019 85.5241 7.83037 87.0888 7.83037C88.5614 7.83037 89.7273 8.24087 90.5557 9.09118C91.384 9.9415 91.8136 11.085 91.8136 12.5218C91.8136 13.9878 91.3534 15.1607 90.4943 16.0403C89.6046 16.92 88.408 17.3598 86.874 17.3598C85.4013 17.3598 84.2355 16.9493 83.3764 16.1283C82.5481 15.278 82.0879 14.1344 82.0879 12.727ZM84.4196 12.6391C84.4196 13.5773 84.6343 14.3104 85.0945 14.8088C85.5548 15.3073 86.199 15.5712 87.0274 15.5712C87.8251 15.5712 88.4694 15.3366 88.8989 14.8088C89.3285 14.3104 89.5432 13.5773 89.5432 12.5804C89.5432 11.6128 89.3285 10.8798 88.8989 10.352C88.4694 9.85354 87.8251 9.58964 87.0581 9.58964C86.2297 9.58964 85.6161 9.85353 85.1559 10.3813C84.665 10.9384 84.4196 11.6715 84.4196 12.6391ZM99.2689 9.79489H95.9248V17.1252H93.6544V9.79489H92.059V8.03562H93.6544V6.7748C93.6544 5.83652 93.9919 5.04485 94.6362 4.4291C95.2805 3.81335 96.1088 3.52014 97.1213 3.52014C97.3974 3.52014 97.6429 3.54946 97.8576 3.54946C98.0724 3.54946 98.2565 3.60811 98.4099 3.66675V5.51399C98.3485 5.48467 98.1951 5.42602 98.011 5.36738C97.827 5.30874 97.6122 5.27942 97.3667 5.27942C96.9065 5.27942 96.5384 5.42602 96.2929 5.68992C96.0475 5.95381 95.9248 6.39363 95.9248 6.92141V8.0063H99.2689V5.95381L101.509 5.30874V8.0063H103.779V9.76557H101.509V14.0172C101.509 14.5743 101.631 14.9554 101.815 15.19C102.03 15.4246 102.368 15.5419 102.828 15.5419C102.951 15.5419 103.104 15.5125 103.288 15.4539C103.472 15.3953 103.626 15.3366 103.748 15.2486V17.0079C103.595 17.0959 103.38 17.1545 103.043 17.2132C102.705 17.2718 102.398 17.3011 102.061 17.3011C101.11 17.3011 100.404 17.0666 99.9439 16.5974C99.4837 16.1283 99.2383 15.3953 99.2383 14.4277L99.2689 9.79489Z" fill="white"/>
<path d="M10.6959 0.236206H0.203125V10.2641H10.6959V0.236206Z" fill="white"/>
<path d="M22.2935 0.236206H11.8008V10.2641H22.2935V0.236206Z" fill="white"/>
<path d="M10.6959 11.3196H0.203125V21.3475H10.6959V11.3196Z" fill="white"/>
<path d="M22.2935 11.3196H11.8008V21.3475H22.2935V11.3196Z" fill="white"/>
</g>
<defs>
<clipPath id="clip0_1072_7781">
<rect width="103.577" height="21.1113" fill="white" transform="translate(0.203125 0.236206)"/>
</clipPath>
</defs>
</svg>
