<svg width="86" height="37" viewBox="0 0 86 37" fill="none" xmlns="http://www.w3.org/2000/svg">
<g clip-path="url(#clip0_1072_7778)">
<path d="M14.0731 33.3889C14.0731 34.9958 14.6323 35.625 15.4874 35.625C17.6271 35.625 21.0362 30.6121 20.9067 25.3492C24.1513 21.9138 28.0407 16.5321 28.0407 12.2218C28.0407 11.1784 27.7459 10.2998 26.5138 10.2998C24.63 10.2998 21.9383 13.5585 20.2309 16.7944C18.5842 20.1468 17.0439 23.9705 14.9992 29.2183C14.5215 30.5346 14.0731 32.1288 14.0731 33.3889ZM60.3566 26.2348V28.9357C60.3566 28.9357 61.6905 29.9029 64.2928 29.9029C68.2428 29.9029 69.9781 27.6909 69.9781 25.2769C69.9781 20.0455 62.9599 21.296 62.9599 17.8245C62.9599 16.5198 63.9948 15.5759 65.7321 15.5759C67.7609 15.5759 69.2553 16.6625 69.2553 16.6625V14.1626C69.2553 14.1626 67.8662 13.3901 65.8636 13.3901C62.486 13.3901 60.3816 15.5072 60.3816 18.0506C60.3816 23.2228 67.378 22.211 67.378 25.5816C67.378 27.1306 66.109 27.692 64.468 27.692C62.119 27.692 60.3566 26.2348 60.3566 26.2348ZM85.848 29.532H83.3358V20.5529C83.3358 17.2113 82.1205 15.5406 79.69 15.5406C78.4338 15.5406 77.3947 16.0146 76.5726 16.9628C75.7505 17.9109 75.3395 19.1076 75.3395 20.5529V29.532H72.8273V13.7878H75.3395V16.4016H75.4008C76.5854 14.4131 78.3011 13.4188 80.5478 13.4188C82.2635 13.4188 83.5757 13.9749 84.4846 15.087C85.3935 16.1991 85.848 17.8058 85.848 19.9071L85.848 29.532ZM57.614 29.532H55.1018V20.4914C55.1018 18.7489 54.8337 17.4881 54.2976 16.7091C53.7614 15.9301 52.8602 15.5406 51.5938 15.5406C50.5215 15.5406 49.6101 16.0326 48.8595 17.0166C48.1089 18.0006 47.7336 19.1794 47.7336 20.5529V29.532H45.2213V20.1839C45.2213 17.0883 44.0316 15.5406 41.6521 15.5406C40.5492 15.5406 39.6403 16.0044 38.9254 16.932C38.2106 17.8597 37.8531 19.0666 37.8531 20.5529V29.532H35.3409V13.7878H37.8531V16.2786H37.9144C39.0275 14.3721 40.6513 13.4188 42.7857 13.4188C43.858 13.4188 44.7924 13.7186 45.589 14.3182C46.3855 14.9179 46.9319 15.7046 47.2281 16.6783C48.3922 14.5053 50.1283 13.4188 52.4364 13.4188C55.8881 13.4188 57.614 15.556 57.614 19.8302L57.614 29.532ZM4.80179 36.9022C2.65656 36.9022 0.828125 35.5508 0.828125 32.4875C0.828125 27.7586 4.88265 24.1674 6.72224 23.1517C6.72224 23.1517 9.29604 24.6399 11.9662 25.5975C6.66083 22.2285 3.27073 16.09 3.27073 9.2769C3.27073 2.90963 6.61924 0.0428467 9.64246 0.0428467C12.0745 0.0428467 17.8403 2.7281 17.8403 13.032C17.8403 24.1195 12.0762 36.9022 4.80179 36.9022Z" fill="white"/>
</g>
<defs>
<clipPath id="clip0_1072_7778">
<rect width="85.105" height="36.9448" fill="white" transform="translate(0.785156)"/>
</clipPath>
</defs>
</svg>
