<svg width="92" height="32" viewBox="0 0 92 32" fill="none" xmlns="http://www.w3.org/2000/svg">
<g clip-path="url(#clip0_1072_7788)">
<path d="M91.1368 7.2592V28.5826L88.2031 31.4813V10.6033L91.1368 7.2592Z" fill="white"/>
<path d="M68.457 10.6033V31.4813H88.202V10.6033H68.457Z" fill="white"/>
<path d="M71.5497 7.27329L68.457 10.6033H88.202L91.1356 7.25922L71.5497 7.27329Z" fill="white"/>
<path d="M47.0973 8.1877L66.5196 5.52167L64.8946 10.1202L45.7383 12.7015L47.0973 8.1877Z" fill="white"/>
<path d="M64.8946 10.1203L67.5852 28.8242L48.434 31.4813L45.7383 12.7016L64.8946 10.1203Z" fill="white"/>
<path d="M64.8945 10.1203L67.5852 28.8242L69.0533 24.7868L66.5346 5.63461L66.5195 5.52174" fill="white"/>
<path d="M30.692 6.59284L47.8863 14.2538L40.1278 31.6461L22.9336 23.9854L30.692 6.59284Z" fill="white"/>
<path d="M28.9062 0.639536L30.6911 6.59286L47.8854 14.2538L46.4398 8.56537L28.9062 0.639536Z" fill="white"/>
<path d="M28.9047 0.639509L21.9844 16.8581L22.9312 23.9854L30.6895 6.59284L28.9047 0.639509Z" fill="white"/>
<path d="M19.314 10.0927L22.1481 28.4978L3.1458 31.4399L0.09375 12.9987L19.314 10.0927Z" fill="white"/>
<path d="M20.6129 3.39095L23.4261 21.9741L22.1466 28.4984L19.3125 10.0933L20.6129 3.39095Z" fill="white"/>
<path d="M61.6361 13.7039C61.5496 13.1229 61.3487 12.6797 61.0231 12.3894C60.7643 12.1576 60.4385 12.0402 60.0676 12.041C59.9727 12.041 59.8754 12.0484 59.7741 12.0629C59.277 12.1334 58.8961 12.3611 58.6629 12.7365C58.4931 13.0076 58.4107 13.3349 58.4107 13.7114C58.4107 13.8556 58.4228 14.0075 58.4468 14.1667L59.1452 19.0337L53.6388 19.8339L52.9403 14.9659C52.8556 14.4001 52.6578 13.9614 52.3364 13.6631C52.0772 13.4214 51.7537 13.2978 51.389 13.2987C51.303 13.2987 51.2146 13.3055 51.1243 13.3186C50.606 13.3923 50.2111 13.6154 49.9715 13.9854C49.7976 14.2517 49.7138 14.5804 49.7138 14.9628C49.7138 15.1098 49.7264 15.2648 49.7505 15.4286L51.6346 28.0863C51.721 28.668 51.9271 29.1104 52.266 29.3963C52.5304 29.6196 52.8616 29.7319 53.241 29.7312C53.3448 29.7312 53.4526 29.7231 53.5638 29.7068C54.0379 29.6391 54.4041 29.4128 54.6248 29.0377C54.7831 28.7712 54.86 28.451 54.86 28.0845C54.86 27.9379 54.848 27.7839 54.8239 27.623L54.0541 22.6223L59.5603 21.8231L60.3305 26.8238C60.4154 27.3982 60.6195 27.8378 60.9535 28.1275C61.2189 28.3579 61.5469 28.4739 61.9188 28.4733C62.0145 28.4733 62.1123 28.4661 62.2133 28.4515C62.7085 28.3803 63.088 28.1561 63.3144 27.7838C63.4777 27.5181 63.5564 27.196 63.5564 26.8247C63.5564 26.6778 63.5444 26.5232 63.5205 26.3609L61.6361 13.7039ZM39.2416 20.7048C38.5937 22.2118 37.7383 23.2455 36.6801 23.8182C36.113 24.1251 35.5319 24.277 34.9308 24.2772C34.4085 24.2772 33.8699 24.1619 33.3139 23.9296C32.1105 23.423 31.3608 22.6088 31.0364 21.4604C30.9278 21.0752 30.8734 20.6703 30.8734 20.2447C30.8734 19.4017 31.0876 18.4772 31.5197 17.4712C32.1822 15.9285 33.0471 14.8762 34.1061 14.3C34.6718 13.9921 35.2533 13.8393 35.8564 13.8393C36.3845 13.8393 36.9303 13.9558 37.4957 14.1927C38.6913 14.6952 39.4333 15.5111 39.7519 16.6645C39.8555 17.0418 39.9077 17.4388 39.9077 17.8566C39.9077 18.7173 39.6873 19.6671 39.2416 20.7048ZM41.1252 13.1286C40.4497 12.425 39.629 11.8717 38.6667 11.4687C37.7115 11.068 36.7457 10.8682 35.7724 10.8682L35.7275 10.8684C34.7393 10.8748 33.7625 11.092 32.7998 11.5184V11.5181C31.7922 11.9512 30.914 12.5573 30.1688 13.3355C29.4235 14.1134 28.8167 15.0492 28.3483 16.139C27.8863 17.2163 27.6296 18.2939 27.582 19.3718C27.5765 19.4938 27.574 19.6158 27.574 19.7373C27.574 20.6885 27.7393 21.6204 28.0692 22.5312C28.4192 23.4922 28.9357 24.3243 29.6167 25.0257C30.2971 25.7272 31.1345 26.2853 32.1252 26.6992V26.6991C33.0728 27.0966 34.035 27.2954 35.0096 27.2949H35.0346C36.0176 27.2905 36.9925 27.0824 37.9564 26.6736L37.9572 26.6733L37.9577 26.673C38.9717 26.2262 39.8559 25.6119 40.61 24.8347C41.3637 24.0565 41.9731 23.1235 42.4387 22.0398C42.9043 20.9563 43.158 19.8773 43.1998 18.8042C43.2037 18.7007 43.2056 18.5975 43.2056 18.4946C43.2056 17.5296 43.0332 16.584 42.6875 15.6591C42.3216 14.6762 41.8005 13.8319 41.1252 13.1286ZM17.2732 25.5678C17.1233 25.391 16.9218 25.2605 16.676 25.1758C16.4234 25.0887 16.1181 25.0468 15.7584 25.0468C15.4193 25.0468 15.0321 25.0839 14.595 25.1579L9.57959 26.0044C9.6326 25.6228 9.82454 25.1213 10.163 24.5101C10.5409 23.825 11.0981 23.0025 11.8341 22.045L11.8346 22.0446C12.0872 21.7112 12.2802 21.4567 12.4136 21.2807C12.5095 21.1637 12.6428 20.9913 12.8156 20.7635C13.963 19.2773 14.6732 18.0673 14.9455 17.1173C15.1011 16.5787 15.196 16.0362 15.2303 15.4896C15.2396 15.34 15.244 15.1916 15.244 15.0442C15.244 14.6525 15.2115 14.2668 15.1457 13.8874C15.0861 13.5416 14.9999 13.254 14.8843 13.0233C14.7688 12.7927 14.622 12.6177 14.4408 12.5072C14.2366 12.3843 13.9493 12.3323 13.5733 12.3315C13.2629 12.3315 12.8908 12.3688 12.4551 12.4421L6.65904 13.4214C5.95709 13.5401 5.43881 13.7441 5.10819 14.0516C4.84534 14.2952 4.70956 14.6105 4.71095 14.9723C4.71095 15.0668 4.71967 15.1646 4.73739 15.2656C4.81884 15.7521 5.07555 16.1086 5.48934 16.2901C5.73359 16.3988 6.02875 16.4509 6.37317 16.4509C6.60775 16.4509 6.8654 16.4266 7.14701 16.3792L11.9981 15.5715C12.0065 15.6562 12.0121 15.7405 12.0121 15.8245C12.0121 16.1237 11.9596 16.416 11.8545 16.7037C11.7104 17.1002 11.3507 17.6671 10.7774 18.3876C10.6148 18.5843 10.366 18.8907 10.0307 19.3061C8.7224 20.871 7.78539 22.2052 7.21841 23.3151C7.21841 23.3156 7.2183 23.3156 7.21804 23.316L7.21791 23.3165C6.81537 24.0804 6.53602 24.8329 6.38278 25.5736C6.29354 26.0055 6.24839 26.4204 6.24839 26.8183C6.24839 27.1034 6.27161 27.3792 6.31783 27.6463C6.38431 28.0294 6.48005 28.3454 6.60907 28.5958C6.73808 28.8452 6.90264 29.0314 7.10571 29.1418C7.29475 29.2431 7.5727 29.2831 7.95526 29.2844C8.4409 29.2844 9.09465 29.2135 9.92207 29.0742L15.1812 28.1864C16.1124 28.0279 16.7602 27.8086 17.1364 27.5034C17.4372 27.2596 17.5932 26.9245 17.5915 26.5301C17.5915 26.4303 17.5822 26.3272 17.5634 26.2199C17.5192 25.9638 17.423 25.7441 17.2732 25.5678ZM12.8158 20.7631L12.8162 20.7629L12.8156 20.7635H12.8153L12.8158 20.7631ZM81.1321 24.9938C80.3755 25.8965 79.3568 26.3447 78.0418 26.3462C76.7176 26.3447 75.6949 25.8979 74.9341 25C74.1756 24.101 73.7917 22.865 73.7912 21.2789C73.7917 19.6623 74.1741 18.4081 74.9284 17.5021C75.6849 16.5964 76.7107 16.1469 78.0418 16.1452C79.3568 16.1469 80.3752 16.5961 81.1321 17.5021C81.8868 18.4081 82.2699 19.6623 82.2699 21.2789C82.2699 22.8577 81.8878 24.0922 81.1321 24.9938ZM85.19 18.1139C84.7993 17.1443 84.2208 16.2752 83.456 15.5083C82.7239 14.7712 81.9009 14.2146 80.9925 13.8413C80.0826 13.4677 79.0994 13.2813 78.0433 13.2815C76.9797 13.2813 75.987 13.4677 75.0703 13.8412C74.1541 14.2146 73.3316 14.7713 72.6066 15.5087C71.8427 16.268 71.2665 17.1343 70.8841 18.1032C70.5019 19.0733 70.3102 20.1312 70.3102 21.2757C70.3102 22.4054 70.5023 23.4598 70.8903 24.4359C71.2764 25.4124 71.8494 26.2892 72.6066 27.0633C73.3161 27.7873 74.1299 28.3349 75.0423 28.7045C75.9551 29.0735 76.9566 29.2584 78.0433 29.2584C79.091 29.2584 80.0732 29.0735 80.9855 28.7045C81.8983 28.3352 82.7231 27.7878 83.4554 27.0642C84.2208 26.2893 84.7993 25.4155 85.19 24.442C85.581 23.4695 85.7764 22.4129 85.7764 21.2757C85.7764 20.1384 85.581 19.0837 85.19 18.1139Z" fill="#0075FF"/>
<path d="M0.09375 12.9993L0.469857 11.1473L1.42818 6.42772L20.6144 3.39094L19.314 10.0933L0.09375 12.9993Z" fill="white"/>
</g>
<defs>
<clipPath id="clip0_1072_7788">
<rect width="91.0425" height="31.0072" fill="white" transform="translate(0.09375 0.638916)"/>
</clipPath>
</defs>
</svg>
